<?xml version="1.0" encoding="utf-8"?>
<!-- Generator: Adobe Illustrator 12.0.0, SVG Export Plug-In . SVG Version: 6.00 Build 51448)  -->
<!DOCTYPE svg PUBLIC "-//W3C//DTD SVG 1.1//EN" "http://www.w3.org/Graphics/SVG/1.1/DTD/svg11.dtd" [
	<!ENTITY ns_svg "http://www.w3.org/2000/svg">
	<!ENTITY ns_xlink "http://www.w3.org/1999/xlink">
]>
<svg  version="1.1" id="Layer_1" xmlns="&ns_svg;" xmlns:xlink="&ns_xlink;" width="381.231" height="117.565"
	 viewBox="0 0 381.231 117.565" overflow="visible" enable-background="new 0 0 381.231 117.565" xml:space="preserve">
<g>
	<text transform="matrix(1 0 0 1 152.7168 85.5469)" fill="#04587C" font-family="'Champagne&Limousines'" font-size="96.0416">-</text>
</g>
<path fill="#04587C" d="M177.09,81.418c-6.284,6.034-13.803,9.05-22.557,9.05c-9.411,0-17.422-3.306-24.034-9.917
	c-6.611-6.613-9.918-14.625-9.918-24.034c0-9.348,3.307-17.344,9.918-23.986c6.612-6.645,14.624-9.966,24.034-9.966
	c8.753,0,16.367,2.954,22.839,8.863l-2.862,2.532c-5.689-5.034-12.349-7.551-19.977-7.551c-8.316,0-15.421,2.94-21.313,8.816
	c-5.894,5.879-8.84,12.974-8.84,21.291c0,8.346,2.946,15.459,8.84,21.337c5.892,5.877,12.997,8.816,21.313,8.816
	c7.127,0,13.413-2.188,18.853-6.564V59.893h3.704V81.418z"/>
<path fill="none" stroke="#04587C" stroke-width="4.8174" stroke-miterlimit="10" d="M177.09,81.418
	c-6.284,6.034-13.803,9.05-22.557,9.05c-9.411,0-17.422-3.306-24.034-9.917c-6.611-6.613-9.918-14.625-9.918-24.034
	c0-9.348,3.307-17.344,9.918-23.986c6.612-6.645,14.624-9.966,24.034-9.966c8.753,0,16.367,2.954,22.839,8.863l-2.862,2.532
	c-5.689-5.034-12.349-7.551-19.977-7.551c-8.316,0-15.421,2.94-21.313,8.816c-5.894,5.879-8.84,12.974-8.84,21.291
	c0,8.346,2.946,15.459,8.84,21.337c5.892,5.877,12.997,8.816,21.313,8.816c7.127,0,13.413-2.188,18.853-6.564V59.893h3.704V81.418z"
	/>
<polygon fill="#04587C" points="226.517,76.001 226.517,23.36 230.268,23.36 230.268,87.771 189.704,37.266 189.704,89.673 
	185.953,89.673 185.953,25.542 "/>
<polygon fill="none" stroke="#04587C" stroke-width="3.2116" stroke-miterlimit="10" points="226.517,76.001 226.517,23.36 
	230.268,23.36 230.268,87.771 189.704,37.266 189.704,89.673 185.953,89.673 185.953,25.542 "/>
<path fill="#04587C" d="M244.385,66.692v22.979h-3.751V23.36h17.398c5.063,0.688,9.362,2.8,12.895,6.331
	c4.219,4.253,6.33,9.35,6.33,15.29c0,6.001-2.111,11.121-6.33,15.355c-4.221,4.237-9.316,6.355-15.288,6.355H244.385z
	 M244.385,27.16v35.732h11.255c4.909,0,9.112-1.742,12.614-5.228s5.254-7.714,5.254-12.684c0-4.94-1.752-9.146-5.254-12.618
	c-3.502-3.469-7.705-5.203-12.614-5.203H244.385z"/>
<path fill="none" stroke="#04587C" stroke-width="4.8174" stroke-miterlimit="10" d="M244.385,66.692v22.979h-3.751V23.36h17.398
	c5.063,0.688,9.362,2.8,12.895,6.331c4.219,4.253,6.33,9.35,6.33,15.29c0,6.001-2.111,11.121-6.33,15.355
	c-4.221,4.237-9.316,6.355-15.288,6.355H244.385z M244.385,27.16v35.732h11.255c4.909,0,9.112-1.742,12.614-5.228
	s5.254-7.714,5.254-12.684c0-4.94-1.752-9.146-5.254-12.618c-3.502-3.469-7.705-5.203-12.614-5.203H244.385z"/>
<path fill="#04587C" d="M303.566,52.952c-4.721-1.563-8.449-3.712-11.186-6.448s-4.104-6.057-4.104-9.966
	c0-3.813,1.367-7.096,4.104-9.848c2.736-2.751,6.057-4.126,9.967-4.126c3.844,0,7.158,1.375,9.941,4.126
	c1.5,1.471,2.547,3.111,3.141,4.924l-3.375,1.313c-0.5-1.345-1.314-2.579-2.439-3.703c-2-2.001-4.424-3.004-7.268-3.004
	c-2.846,0-5.275,1.003-7.293,3.004c-2.016,1.999-3.025,4.438-3.025,7.313c0,2.845,1,5.285,3.002,7.317
	c1.875,1.844,4.471,3.531,7.785,5.063c5.314,1.72,9.783,4.393,13.41,8.02c3.814,3.815,5.723,8.426,5.723,13.833
	c0,5.441-1.916,10.083-5.744,13.929c-3.83,3.845-8.449,5.768-13.857,5.768c-5.441,0-10.068-1.938-13.883-5.815
	c-3.094-3.063-4.939-6.627-5.533-10.691l3.518-1.267c0.375,3.597,1.906,6.724,4.596,9.381c3.125,3.125,6.895,4.688,11.303,4.688
	s8.174-1.563,11.301-4.688c3.125-3.127,4.689-6.895,4.689-11.304c0-4.375-1.564-8.126-4.689-11.253
	C310.896,56.768,307.537,54.578,303.566,52.952"/>
<path fill="none" stroke="#04587C" stroke-width="4.8174" stroke-miterlimit="10" d="M303.566,52.952
	c-4.721-1.563-8.449-3.712-11.186-6.448s-4.104-6.057-4.104-9.966c0-3.813,1.367-7.096,4.104-9.848
	c2.736-2.751,6.057-4.126,9.967-4.126c3.844,0,7.158,1.375,9.941,4.126c1.5,1.471,2.547,3.111,3.141,4.924l-3.375,1.313
	c-0.5-1.345-1.314-2.579-2.439-3.703c-2-2.001-4.424-3.004-7.268-3.004c-2.846,0-5.275,1.003-7.293,3.004
	c-2.016,1.999-3.025,4.438-3.025,7.313c0,2.845,1,5.285,3.002,7.317c1.875,1.844,4.471,3.531,7.785,5.063
	c5.314,1.72,9.783,4.393,13.41,8.02c3.814,3.815,5.723,8.426,5.723,13.833c0,5.441-1.916,10.083-5.744,13.929
	c-3.83,3.845-8.449,5.768-13.857,5.768c-5.441,0-10.068-1.938-13.883-5.815c-3.094-3.063-4.939-6.627-5.533-10.691l3.518-1.267
	c0.375,3.597,1.906,6.724,4.596,9.381c3.125,3.125,6.895,4.688,11.303,4.688s8.174-1.563,11.301-4.688
	c3.125-3.127,4.689-6.895,4.689-11.304c0-4.375-1.564-8.126-4.689-11.253C310.896,56.768,307.537,54.578,303.566,52.952z"/>
<path fill-rule="evenodd" clip-rule="evenodd" fill="#808284" d="M93.572,19.514c-0.865,1.781-4.194,1.097-4.203,3.735
	c-0.048,0.903,1.153,0.558,1.637,0.935c0.12,0.733,0.407,1.303,0.697,1.868c0.814-0.196,1.244-0.78,2.335-0.7
	c-0.138,0.994,0.169,1.543,0.234,2.335c-3.559-0.901-5.617,0.642-6.538,3.034c-1.112-0.18-1.501,0.365-2.568,0.233
	c-0.69,0.321-0.332,1.69-0.698,2.336c0.073,0.546,1.018,0.227,1.165,0.699c0.005,0.551-0.4,0.688-0.233,1.402
	c-1.835-0.724-3.293-0.581-5.371-0.233c-0.949,1.295-0.458,2.842-0.233,4.669c1.058,0.847,3.995,0.939,5.604,0.466
	c1.025-1.62,2.204-3.09,3.269-4.669c1.878,0.559,2.583-0.232,3.503-1.167c0.744,2.215,3.513,2.402,4.671,4.203
	c-0.498,0.697-1.477,0.397-2.337,0.232c0.257,1.424,2.084,1.701,3.269,0.935c0.019-0.839-0.188-1.901,0.47-2.102
	c-1.186-1.463-3.635-1.658-3.971-3.969c2.67-1.188,3.602,1.376,5.138,2.101c-0.344,2.601,1.131,3.382,2.332,4.436
	c0.333-1.537,0.592-3.146,1.87-3.734c0.549,2.408,1.149,4.764,4.902,3.968c0.396,1.552,1.01,2.886,1.402,4.437
	c-2.988,0.864-6.086-0.123-7.238-1.867c-0.655,0.28-1.611,0.258-2.567,0.233c-0.529,0.175-0.094,1.31-0.235,1.868
	c-2.25-0.628-4.249-1.51-6.77-1.868c0-1.091,0-2.179,0-3.269c-2.861,0.41-6.447,0.092-8.176,1.635c-3.17-0.5-4.604,0.257-6.536,1.4
	c0,1.09,0,2.18,0,3.27c-2.095,1.328-3.941,2.906-6.069,4.203c0.259,0.986,0.434,2.053,1.633,2.102
	c0.238,1.249-0.319,1.701-0.933,2.1c-1.547,5.656,3.091,7.557,5.369,10.507c2.178-0.002,3.571-0.788,6.073-0.465
	c1.254-0.837,1.998-1.202,3.5-0.936c0.711,0.126,0.848,0.846,1.635,1.167c1.175,0.481,2.139-0.089,3.269,0.469
	c-1.532,5.294,1.796,7.634,3.268,11.205c-1.111,2.18-3.138,5.774-0.231,7.475c-0.47,3.503,0.541,5.527,2.1,7.001
	c0,1.172,0,2.338,0,3.503c0.176,0.526,1.31,0.092,1.869,0.233c0,0,36.066-47.362-6.407-75.679 M6.715,39.361
	c0.534,0.398,0.086,1.781,0.233,2.566c0.537,0.553,1.432,0.748,2.102,1.168c-0.583,4.084,0.973,6.03,2.333,8.172
	c0.759-0.135,1.087,0.159,1.634,0.233c1.138-2.579-3.075-4.358-1.867-7.704c1.724,0.005,1.079,2.128,1.401,3.034
	c0.636,1.794,2.209,3.069,3.035,4.437c-0.061,0.718-0.507,1.051-0.7,1.635c0.516,1.117,1.351,1.918,1.868,3.035
	c2.37,0.495,4.062,1.201,6.538,0.467c0.413,0.391-0.207,0.783,0,1.637c4.272-0.227,5.193,2.9,7.472,4.668
	c1.472-0.072,2.765,0.037,3.969,0.234c-0.139,1.228,0.174,2.005,0.235,3.034c-0.654,0.979-1.693,1.578-2.803,2.102
	c0.319,2.207-0.731,3.417-0.466,4.902c0.483,2.724,4.331,3.563,4.203,7.006c2.09,0.635,3.704,1.744,5.136,3.035
	c0,3.035,0,6.069,0,9.105c-0.112,0.735,1.07,0.175,1.168,0.699c-0.829,2.849-0.78,5.3,1.167,6.772
	c-1.171,6.147,2.457,9.109,5.604,11.675c1.09,0,2.18,0,3.269,0c0.767-1.899-1.625-1.917-2.102-3.269
	c-0.083-1.251,0.694-1.642,0.467-3.035c-0.576-0.434-1.662-0.363-2.102-0.936c-0.6-0.954,1.396-1.006,1.168-2.332
	c0.222-1.08-1.519-0.196-1.401-1.169c0.078-1.076,1.261-0.515,1.868-0.699c1.292-0.398,2.453-1.192,3.502-1.637
	c1.267-2.469,3.119-4.354,4.671-6.538c-0.571-1.697-1.117-3.93,0.232-5.137c2.72,0.386,4.241-0.431,5.369-1.633
	c0.404-2.394-0.03-4.308,0.467-6.072c0.565-1.996,3.047-2.963,2.803-5.371c-1.585-0.514-2.948-1.253-3.27-3.033
	c-3.818,0.398-6.303-0.547-8.872-1.401c0.24-2.418-0.645-3.713-1.401-5.137c-1.167,0-2.335,0-3.502,0
	c-1.051-1.518-1.651-3.486-3.735-3.968c-0.634-0.169,0.167,1.101-0.467,0.933c-0.786,0.147-2.169-0.3-2.568,0.233
	c-0.985-1.35-2.394-2.275-4.669-2.334c-1.357,0.668-1.919,2.128-3.036,3.035c-1.661-0.051-2.922-0.503-4.435-0.701
	c0.162-1.796-0.235-3.033-0.235-4.67c-0.674-0.568-1.972-0.517-3.035-0.699c0.295-1.457,1.499-2.033,0.934-3.736
	c-2.512,0.569-3.492,3.493-7.005,2.334c-1.221-1.52-0.916-2.633,0-4.67c0.8-1.778,1.85-3.27,4.204-3.734
	c1.904-0.379,4.395,0.278,6.536,0c-0.472,2.184,1.098,2.328,2.336,2.801c-1.193-4.185,2.786-5.557,5.136-7.237
	c0-0.466,0-0.936,0-1.401c1.867-2.181,3.893-4.201,6.771-5.371c0.013-1.063,1.736-1.637,2.335-2.801
	c1.064,0.598,1.699,0.875,2.335-0.233c-0.361-0.496-1.614-0.1-1.868-0.701c-0.278-2.116,2.613-1.448,2.802-0.233
	c1.88,0.402,2.131-0.824,3.501-0.934c0.535,1.436-1.374,1.258-0.701,2.102c0.517,1.195,2.283,1.142,3.737,1.401
	c0.54-2.175-1.633-1.637-2.335-2.569c-0.032-1.044,1.352-0.67,1.868-1.167c0.468-2.257-0.954-2.624-2.102-3.269
	c0-1.012,0-2.023,0-3.036c-1.632,0.08-1.999,1.426-3.968,1.169c0.009-0.77,0.394-1.164,0.232-2.104
	c-1.598-1.074-4.382-1.551-5.604,0c0,1.246,0,2.492,0,3.737c-0.78,0.388-1.789,0.546-2.568,0.934
	c-1.151,0.562-0.625,2.799-2.568,2.568c0-0.935,0-1.867,0-2.802c-2.108-0.615-4.763-0.687-4.669-3.503
	c2.369-1.212,4.213-2.946,7.238-3.501c-0.023,0.723,0.105,1.295,0.468,1.634c1.409,0.165,1.048-1.441,2.568-1.169
	c0.011-0.711-0.841-0.559-0.701-1.398c2.032,0.396,2.205-1.064,3.269-1.635c2.138-0.224,3.886-0.778,4.903,0.699
	c-0.899,1.201-2.692,1.512-3.969,2.334c1.493,0.688,3.497,0.862,5.136,1.402c0.554-0.381,0.498-1.371,0.936-1.867
	c1.722,0.242,2.786-0.172,3.034-1.402c-0.354-0.346-1.024-0.376-1.634-0.467c0-0.623,0-1.244,0-1.867
	c-2.426-1.912-7.767-3.473-10.739-0.934c-0.179,1.018,0.289,2.162,0,2.568c-3.072,0.07-1.949-2.66-0.468-3.504
	c-1.378-0.361-4.762-0.717-4.903,0.936c-0.116,0.973,1.775-0.063,1.167,1.4c-0.552,1.004-2.898,0.215-3.034,1.635
	c-1.012,0-2.024,0-3.037,0c0.053-0.752-0.413-0.988-0.232-1.869c2.593,0.492,3.301-0.9,4.436-1.867
	c-0.626-1.771-1.682,0.533-2.802,0.701c-1.632,0.244-2.701-0.423-3.269-2.102c-3.347-0.469-4.955,0.805-6.304,2.334
	c0.926,0.086,2.237-0.213,2.801,0.233c0.435,0.82-0.177,0.768-0.466,1.401c1.489,0.068,3.481-0.368,3.502,1.168
	c-1.012,0-2.023,0-3.036,0c-1.554-1.404-3.704-2.211-6.771-2.102C7.91,23.418,6.715,39.361,6.715,39.361z M82.599,25.352
	c-0.011,1.249,2.331,1.119,2.102,2.567c-1.023,0.224-1.554,0.938-1.401,2.335c2.111,0.013,4.469,0.267,4.669-1.635
	c-2.191-0.53-2.45-2.996-3.268-4.903C83.227,24.115,82.607,24.33,82.599,25.352z M79.562,29.554c2.05-0.054,3.407-0.796,3.737-2.568
	C81.807,25.26,79.247,27.277,79.562,29.554z M50.844,33.757c0.377,2.503,2.849,0.249,3.269-0.7
	c-0.441,0.051-0.515-0.264-0.934-0.234C52.669,33.403,52.228,34.051,50.844,33.757z M48.742,35.158c0.389,0,0.779,0,1.168,0
	c0.125-0.826-0.198-1.203-0.701-1.401C49.002,34.172,48.558,34.351,48.742,35.158z"/>
<circle fill="none" stroke="#000000" stroke-width="3" cx="58.192" cy="58.191" r="56.692"/>
<path fill="#04587C" d="M83.579,70.19c-4.182-3.572-8.349-7.132-12.534-10.705c-0.541,0.452-1.046,0.897-1.573,1.315
	c-2.03,1.61-4.337,2.576-6.903,2.907c-0.734,0.093-1.477,0.12-2.218,0.145c-0.281,0.009-0.449,0.083-0.539,0.361
	c-0.96,2.974-1.923,5.948-2.895,8.919c-0.925,2.829-1.859,5.655-2.788,8.481c-0.479,1.462-0.946,2.933-1.439,4.392
	c-0.101,0.302,0.057,0.401,0.259,0.533c1.211,0.792,2.19,1.798,2.876,3.086c1.68,3.155,1.52,6.26-0.461,9.187
	c-2.98,4.401-9.257,5.071-13.173,1.319c-1.786-1.711-2.692-3.846-2.659-6.348c0.041-2.959,1.289-5.305,3.658-7.033
	c1.428-1.042,3.055-1.586,4.842-1.587c0.721,0,0.74-0.031,0.964-0.722c0.914-2.816,1.837-5.631,2.759-8.444
	c0.982-2.998,1.967-5.996,2.951-8.995c0.414-1.264,0.822-2.526,1.245-3.83c-0.574-0.246-1.162-0.469-1.724-0.742
	c-3.092-1.505-5.376-3.825-6.839-6.921c-1.119-2.361-1.542-4.872-1.314-7.48c0.023-0.258-0.042-0.381-0.313-0.444
	c-3.465-0.829-6.928-1.672-10.393-2.505c-1.41-0.339-2.828-0.654-4.235-1c-0.301-0.076-0.426,0.007-0.561,0.271
	c-1.174,2.27-2.942,3.937-5.286,4.938c-4.155,1.778-8.992,0.762-12.056-2.614c-1.833-2.019-2.798-4.399-2.779-7.111
	c0.026-4.013,1.799-7.115,5.209-9.226c1.794-1.109,3.792-1.576,5.911-1.463c3.585,0.19,6.395,1.795,8.395,4.746
	c1.188,1.752,1.84,3.716,1.754,5.867c-0.019,0.468,0.15,0.668,0.596,0.772c2.838,0.668,5.67,1.358,8.505,2.04
	c1.968,0.472,3.939,0.933,5.902,1.42c0.383,0.097,0.491-0.119,0.603-0.373c0.756-1.722,1.825-3.232,3.196-4.513
	c2.848-2.658,6.223-4.021,10.134-3.995c1.027,0.008,1.061,0.029,1.266-0.956c0.482-2.324,0.927-4.653,1.403-6.979
	c0.054-0.267-0.027-0.39-0.251-0.494c-2.085-0.977-3.59-2.542-4.556-4.611c-1.781-3.814-0.792-8.396,2.382-11.131
	c3.844-3.31,9.253-3.182,12.903,0.323c1.956,1.881,2.957,4.213,2.886,6.962c-0.095,3.591-1.731,6.29-4.774,8.136
	c-1.263,0.766-2.668,1.158-4.145,1.241c-0.324,0.018-0.465,0.107-0.532,0.45c-0.498,2.537-1.021,5.067-1.538,7.602
	c-0.048,0.236,0.003,0.383,0.263,0.486c2.781,1.123,5.014,2.931,6.678,5.427c0.708,1.062,1.298,2.183,1.659,3.415
	c0.168,0.572,0.196,0.584,0.801,0.472c3.702-0.687,7.403-1.37,11.104-2.054c0.667-0.123,0.639-0.125,0.713-0.817
	c0.22-2.054,1.052-3.82,2.64-5.16c3.176-2.684,7.448-2.584,10.479,0.29c1.621,1.537,2.424,3.478,2.339,5.751
	c-0.104,2.726-1.295,4.855-3.571,6.319c-2.189,1.408-4.555,1.594-7,0.69c-1.583-0.585-2.759-1.657-3.685-3.032
	c-0.133-0.197-0.244-0.288-0.503-0.241c-4.059,0.754-8.119,1.502-12.182,2.235c-0.319,0.057-0.341,0.236-0.349,0.475
	c-0.042,1.307-0.202,2.597-0.613,3.841c-0.256,0.773-0.565,1.529-0.896,2.273c-0.146,0.329-0.143,0.523,0.15,0.771
	c2.099,1.772,4.183,3.566,6.273,5.347c1.914,1.631,3.835,3.252,5.735,4.894c0.249,0.217,0.379,0.188,0.606,0.002
	c2.245-1.863,4.814-2.8,7.747-2.728c2.803,0.071,5.26,1.029,7.349,2.88c2.297,2.037,3.601,4.601,3.837,7.673
	c0.321,4.153-1.208,7.523-4.429,10.106c-1.727,1.387-3.74,2.126-5.96,2.341c-2.01,0.194-3.944-0.066-5.742-0.95
	c-1.009-0.496-1.954-1.155-2.836-1.856c-2.687-2.135-3.893-5.025-4.041-8.386C82.181,73.875,82.658,72.007,83.579,70.19"/>
<text transform="matrix(1 0 0 1 326.855 91.0654)" font-family="'Champagne&Limousines'" font-size="106">2</text>
</svg>
