<?xml version="1.0" encoding="UTF-8"?>
<svg id="Layer_1" xmlns="http://www.w3.org/2000/svg" version="1.1" viewBox="0 0 612 792">
  <!-- Generator: Adobe Illustrator 29.8.3, SVG Export Plug-In . SVG Version: 2.1.1 Build 3)  -->
  <defs>
    <style>
      .st0, .st1 {
        fill: #11587c;
      }

      .st2 {
        fill: #231f20;
      }

      .st2, .st1 {
        font-family: MyriadPro-Regular, 'Myriad Pro';
        font-size: 65.66px;
      }

      .st3 {
        stroke: #fff;
      }

      .st3, .st4 {
        stroke-width: 2px;
      }

      .st3, .st4, .st5 {
        stroke-miterlimit: 10;
      }

      .st3, .st5 {
        fill: #fff;
      }

      .st4 {
        fill: none;
      }

      .st4, .st5 {
        stroke: #11587c;
      }

      .st5 {
        stroke-width: .75px;
      }
    </style>
  </defs>
  <text class="st2" transform="translate(150.57 681.63)"><tspan x="0" y="0">Records</tspan></text>
  <path id="path29" class="st5" d="M351.55,625.88c0,3.93-8.54,7.1-19.07,7.1s-19.07-3.17-19.07-7.1,8.54-7.1,19.07-7.1,19.07,3.17,19.07,7.1Z"/>
  <path id="repo1" class="st0" d="M313.41,617.02c0-3.93,8.54-7.1,19.07-7.1s19.07,3.17,19.07,7.1M313.41,617.02v8.85c0,.95.52,1.86,1.42,2.7,2.85,2.61,9.69,4.42,17.65,4.42s14.8-1.85,17.65-4.42c.91-.82,1.42-1.75,1.42-2.7v-8.85"/>
  <path id="path32" class="st3" d="M351.55,617.02c0,3.93-8.54,7.1-19.07,7.1s-19.07-3.17-19.07-7.1,8.54-7.1,19.07-7.1,19.07,3.17,19.07,7.1Z"/>
  <path id="repo1-2" class="st0" d="M313.41,608.19c0-3.93,8.54-7.1,19.07-7.1s19.07,3.17,19.07,7.1M313.41,608.19v8.85c0,.95.52,1.86,1.42,2.7,2.85,2.61,9.69,4.42,17.65,4.42s14.8-1.85,17.65-4.42c.91-.82,1.42-1.75,1.42-2.7v-8.85"/>
  <path id="path35" class="st3" d="M351.55,608.19c0,3.93-8.54,7.1-19.07,7.1s-19.07-3.17-19.07-7.1,8.54-7.1,19.07-7.1,19.07,3.17,19.07,7.1Z"/>
  <path class="st0" d="M313.41,599.34v8.85c0,.95.52,1.86,1.42,2.7,2.85,2.61,9.69,4.42,17.65,4.42s14.8-1.85,17.65-4.42c.91-.82,1.42-1.75,1.42-2.7v-8.85"/>
  <path id="path38" class="st5" d="M351.55,599.34c0,3.93-8.54,7.1-19.07,7.1s-19.07-3.17-19.07-7.1,8.54-7.1,19.07-7.1,19.07,3.17,19.07,7.1Z"/>
  <text class="st1" transform="translate(150.84 626.44)"><tspan x="0" y="0">FASST</tspan></text>
  <line class="st4" x1="350.22" y1="604.64" x2="384.12" y2="604.64"/>
  <line class="st4" x1="350.22" y1="613.47" x2="367.17" y2="613.47"/>
  <line class="st4" x1="351.55" y1="617.02" x2="375.65" y2="617.02"/>
  <line class="st4" x1="351.55" y1="625.86" x2="379.46" y2="625.86"/>
  <line class="st4" x1="351.55" y1="608.19" x2="373.53" y2="608.19"/>
</svg>