<?xml version="1.0" encoding="UTF-8"?>
<svg id="Layer_1" xmlns="http://www.w3.org/2000/svg" version="1.1" xmlns:xlink="http://www.w3.org/1999/xlink" viewBox="0 0 158.78 32.47">
  <!-- Generator: Adobe Illustrator 29.8.3, SVG Export Plug-In . SVG Version: 2.1.1 Build 3)  -->
  <defs>
    <style>
      .st0 {
        fill: #32597b;
      }

      .st1 {
        fill: #b42025;
      }

      .st2, .st3, .st4, .st5, .st6, .st7 {
        fill: none;
      }

      .st2, .st4, .st6 {
        stroke: #b42025;
        stroke-linejoin: round;
      }

      .st8 {
        fill: #54c7dd;
      }

      .st9 {
        fill: #1c0c0d;
      }

      .st10 {
        fill: #fff;
      }

      .st11 {
        fill: #b64a4c;
      }

      .st4 {
        stroke-width: 2px;
      }

      .st5 {
        stroke: #32597b;
      }

      .st5, .st7 {
        stroke-miterlimit: 10;
      }

      .st6 {
        stroke-width: .2px;
      }

      .st7 {
        stroke: #231f20;
        stroke-width: .75px;
      }

      .st12 {
        clip-path: url(#clippath);
      }
    </style>
    <clipPath id="clippath">
      <rect class="st3" y="0" width="158.78" height="32.47"/>
    </clipPath>
  </defs>
  <g class="st12">
    <path class="st0" d="M89.36,5.84h7.13c4.94,0,8.15,1.82,8.15,6.61,0,3.99-2.45,6.3-6.38,6.8l6.87,11.62h-2l-6.75-11.51h-5.28v11.51h-1.74V5.84ZM96.04,17.92c4.38,0,6.83-1.78,6.83-5.47s-2.45-5.13-6.83-5.13h-4.94v10.6h4.94Z"/>
    <path class="st0" d="M105.14,21.79c0-5.96,3.85-9.61,7.89-9.61,4.3,0,6.94,3.08,6.94,8.43,0,.46,0,.91-.11,1.37h-13.02c.08,4.59,2.76,7.9,6.83,7.9,1.96,0,3.51-.65,4.87-1.63l.68,1.29c-1.43.87-3.06,1.78-5.7,1.78-4.64,0-8.38-3.57-8.38-9.53M118.38,20.62c0-4.67-2.08-6.99-5.32-6.99s-5.85,2.62-6.23,6.99h11.55Z"/>
    <path class="st0" d="M122.47,5.84h5.77c7.66,0,11.28,4.86,11.28,12.42s-3.62,12.61-11.25,12.61h-5.81V5.84ZM128.05,29.39c6.75,0,9.66-4.6,9.66-11.13s-2.91-10.94-9.66-10.94h-3.85v22.07h3.85Z"/>
    <path class="st0" d="M142.03,21.26V5.84h1.74v15.23c0,6.65,3.1,8.66,6.6,8.66s6.79-2.01,6.79-8.66V5.84h1.62v15.42c0,7.82-4.11,10.06-8.42,10.06s-8.34-2.24-8.34-10.06"/>
    <line class="st0" x1="83.32" y1="18.36" x2="87.04" y2="18.36"/>
    <line class="st5" x1="83.32" y1="18.36" x2="87.04" y2="18.36"/>
    <path class="st0" d="M36.26,5.68h8.75c4.48,0,7.56,2.49,7.56,6.83s-3.05,7-7.81,7h-6.58v10.68h-1.93V5.68ZM38.19,17.75h6.76c3.96,0,5.6-2.1,5.6-5.18,0-3.29-2.17-5.15-5.46-5.15h-6.9v10.33Z"/>
    <path class="st0" d="M65.86,26.85c0,1.54.14,2.77.24,3.32h-1.68c-.14-.42-.25-1.19-.32-2.7-.59,1.3-2.13,3.12-5.74,3.12-4.06,0-5.81-2.62-5.81-5.25,0-3.85,2.98-5.6,8.23-5.6h3.32v-1.79c0-1.75-.52-4.09-4.51-4.09-3.54,0-4.06,1.85-4.45,3.29h-1.75c.21-1.92,1.4-4.9,6.23-4.9,3.99,0,6.23,1.68,6.23,5.53v9.07ZM64.15,21.25h-3.43c-3.89,0-6.3,1.02-6.3,4.03,0,2.2,1.57,3.71,4.02,3.71,5.01,0,5.71-3.33,5.71-7.11v-.63Z"/>
    <path class="st0" d="M68.48,17.09c0-1.54,0-3.01-.04-4.41h1.72c.07.56.1,2.84.07,3.33.77-1.78,2.21-3.75,5.81-3.75,3.12,0,5.88,1.75,5.88,6.58v11.34h-1.75v-11.06c0-3.11-1.29-5.15-4.34-5.15-4.17,0-5.6,3.47-5.6,7.28v8.92h-1.75v-13.09Z"/>
    <line class="st4" x1="3.33" y1="25.53" x2="5.53" y2="21.18"/>
    <polygon class="st1" points="7.16 24.52 5.09 22.06 1.87 21.85 7.68 16.91 7.16 24.52"/>
    <line class="st4" x1="7.68" y1="16.91" x2="17.25" y2=".73"/>
    <polygon class="st11" points="8.96 23.47 9.68 27.62 17.01 24.89 8.96 23.47"/>
    <path class="st10" d="M27.24,25.65c0,2.11-4.58,3.81-10.23,3.81s-10.23-1.7-10.23-3.81,4.58-3.81,10.23-3.81,10.23,1.7,10.23,3.81"/>
    <ellipse class="st7" cx="17.01" cy="25.65" rx="10.23" ry="3.81"/>
    <path class="st9" d="M6.78,20.9c0-2.11,4.58-3.81,10.23-3.81s10.23,1.7,10.23,3.81M6.78,20.9v4.75c0,.51.28,1,.76,1.45,1.53,1.4,5.2,2.37,9.47,2.37s7.94-.99,9.47-2.37c.49-.44.76-.94.76-1.45v-4.75"/>
    <path class="st10" d="M27.24,20.9c0,2.11-4.58,3.81-10.23,3.81s-10.23-1.7-10.23-3.81,4.58-3.81,10.23-3.81,10.23,1.7,10.23,3.81"/>
    <ellipse class="st7" cx="17.01" cy="20.9" rx="10.23" ry="3.81"/>
    <path class="st8" d="M6.78,16.15c0-2.11,4.58-3.81,10.23-3.81s10.23,1.7,10.23,3.81M6.78,16.15v4.75c0,.51.28,1,.76,1.45,1.53,1.4,5.2,2.37,9.47,2.37s7.94-.99,9.47-2.37c.49-.44.76-.94.76-1.45v-4.75"/>
    <path class="st10" d="M27.24,16.15c0,2.11-4.58,3.81-10.23,3.81s-10.23-1.7-10.23-3.81,4.58-3.81,10.23-3.81,10.23,1.7,10.23,3.81"/>
    <ellipse class="st7" cx="17.01" cy="16.15" rx="10.23" ry="3.81"/>
    <path class="st0" d="M6.78,11.41v4.75c0,.51.28,1,.76,1.45,1.53,1.4,5.2,2.37,9.47,2.37s7.94-.99,9.47-2.37c.49-.44.76-.94.76-1.45v-4.75"/>
    <path class="st0" d="M27.24,11.41c0,2.11-4.58,3.81-10.23,3.81s-10.23-1.7-10.23-3.81,4.58-3.81,10.23-3.81,10.23,1.7,10.23,3.81"/>
    <ellipse class="st7" cx="17.01" cy="11.41" rx="10.23" ry="3.81"/>
    <line class="st4" x1="17.25" y1=".93" x2="24.83" y2="13.27"/>
    <polygon class="st1" points="21.13 12.9 24.31 12.42 26.18 9.8 27.33 17.34 21.13 12.9"/>
    <path class="st2" d="M17.22.5c.35-.01.65.31.67.73.02.41-.25.76-.6.78-.35.01-.65-.31-.67-.73-.02-.41.25-.76.6-.78Z"/>
    <polyline class="st4" points="22.51 29.52 33.92 29.48 27.33 17.34"/>
    <polygon class="st1" points="24.76 32.47 23.5 29.51 24.74 26.55 17.73 29.53 24.76 32.47"/>
    <line class="st4" x1="17.25" y1="29.97" x2="3.59" y2="29.97"/>
    <line class="st4" x1="1.03" y1="30.34" x2="4.1" y2="23.97"/>
    <line class="st4" x1=".58" y1="29.97" x2="9.04" y2="29.97"/>
    <path class="st1" d="M1.18,29.03c.21.11.17.6-.09,1.11-.26.5-.64.82-.85.71-.21-.11-.17-.6.09-1.11.26-.5.64-.82.85-.71"/>
    <path class="st6" d="M1.18,29.03c.21.11.17.6-.09,1.11-.26.5-.64.82-.85.71-.21-.11-.17-.6.09-1.11.26-.5.64-.82.85-.71Z"/>
    <rect class="st1" x=".3" y="30.8" width=".37" height=".08"/>
    <rect class="st6" x=".3" y="30.8" width=".37" height=".08"/>
  </g>
</svg>